<svg xmlns="http://www.w3.org/2000/svg" width="100%" height="100%" viewBox="0 0 1200 400"><defs><linearGradient id="bgGrad" x1="0%" x2="100%" y1="0%" y2="100%"><stop offset="0%" stop-color="#0f172a"/><stop offset="50%" stop-color="#1e1b4b"/><stop offset="100%" stop-color="#311042"/></linearGradient><linearGradient id="titleGrad" x1="0%" x2="100%" y1="0%" y2="0%"><stop offset="0%" stop-color="#38bdf8"/><stop offset="50%" stop-color="#818cf8"/><stop offset="100%" stop-color="#c084fc"/></linearGradient><linearGradient id="cardGrad" x1="0%" x2="100%" y1="0%" y2="100%"><stop offset="0%" stop-color="#fff" stop-opacity=".08"/><stop offset="100%" stop-color="#fff" stop-opacity=".02"/></linearGradient><filter id="glow" width="140%" height="140%" x="-20%" y="-20%"><feGaussianBlur result="blur" stdDeviation="8"/><feComposite in="SourceGraphic" in2="blur" operator="over"/></filter><style>@keyframes float1{0%{transform:translateY(0)}50%{transform:translateY(-10px)}}@keyframes float2{0%{transform:translateY(0)}50%{transform:translateY(10px)}}@keyframes pulseRing{0%{transform:scale(.95);opacity:.2}50%{transform:scale(1.05);opacity:.4}}@keyframes dashFlow{0%{stroke-dashoffset:200}}.badge-text,.subtitle,.title{font-family:-apple-system,BlinkMacSystemFont,&apos;Segoe UI&apos;,Roboto,Helvetica,Arial,sans-serif}.title{font-weight:800;font-size:44px;fill:url(#titleGrad)}.subtitle{font-weight:500;font-size:20px;fill:#94a3b8}.badge-text{font-weight:600;font-size:13px;fill:#38bdf8}.floating-card-1{animation:float1 6s ease-in-out infinite}.floating-card-2{animation:float2 7s ease-in-out infinite}.pulse-circle{transform-origin:950px 200px;animation:pulseRing 5s ease-in-out infinite}.pulse-line{stroke-dasharray:10 15;animation:dashFlow 20s linear infinite}</style></defs><rect width="1200" height="400" fill="url(#bgGrad)" rx="16"/><rect width="1196" height="396" x="2" y="2" fill="none" stroke="#fff" stroke-opacity=".1" stroke-width="2" rx="14"/><g opacity=".6"><circle cx="950" cy="200" r="130" fill="none" stroke="#818cf8" stroke-opacity=".2" stroke-width="2" class="pulse-circle"/><circle cx="950" cy="200" r="80" fill="none" stroke="#c084fc" stroke-opacity=".3" stroke-width="1.5"/><path fill="none" stroke="#38bdf8" stroke-opacity=".25" stroke-width="2" d="M 150 80 Q 400 30 950 200" class="pulse-line"/><path fill="none" stroke="#c084fc" stroke-opacity=".25" stroke-width="2" d="M 100 320 Q 600 370 950 200" class="pulse-line"/></g><g class="floating-card-1"><rect width="220" height="45" x="70" y="50" fill="url(#cardGrad)" stroke="#38bdf8" stroke-opacity=".3" rx="8"/><text x="180" y="78" class="badge-text" text-anchor="middle">Zero-Trust PAM</text></g><g class="floating-card-2"><rect width="220" height="45" x="910" y="60" fill="url(#cardGrad)" stroke="#c084fc" stroke-opacity=".3" rx="8"/><text x="1020" y="88" fill="#c084fc" class="badge-text" text-anchor="middle">Root Account Vault</text></g><g class="floating-card-1"><rect width="220" height="45" x="910" y="300" fill="url(#cardGrad)" stroke="#818cf8" stroke-opacity=".3" rx="8"/><text x="1020" y="328" fill="#818cf8" class="badge-text" text-anchor="middle">Just-in-Time Access</text></g><g class="floating-card-2"><rect width="230" height="45" x="70" y="300" fill="url(#cardGrad)" stroke="#34d399" stroke-opacity=".3" rx="8"/><text x="185" y="328" fill="#34d399" class="badge-text" text-anchor="middle">Multi-Cloud Compliance</text></g><g text-anchor="middle"><g filter="url(#glow)" transform="translate(600, 115)"><circle cx="0" cy="0" r="42" fill="#1e1b4b" stroke="#818cf8" stroke-width="3"/><path fill="none" stroke="#38bdf8" stroke-linejoin="round" stroke-width="2.5" d="M -14 -12 L 0 -20 L 14 -12 V 4 C 14 14 0 22 0 22 C 0 22 -14 14 -14 4 Z"/><circle cx="0" cy="-2" r="4" fill="#c084fc"/><path stroke="#c084fc" stroke-linecap="round" stroke-width="2" d="M 0 2 V 10 M -2 7 H 2"/></g><text x="600" y="215" class="title">Awesome Cloud Root Account Management</text><text x="600" y="260" class="subtitle">Curated Directory of Cloud PAM, Root Account Security &amp; Just-in-Time Access</text><g transform="translate(600, 295)"><rect width="130" height="28" x="-210" y="0" fill="#38bdf8" fill-opacity=".15" stroke="#38bdf8" stroke-opacity=".4" rx="14"/><text x="-145" y="18" fill="#38bdf8" font-family="-apple-system, BlinkMacSystemFont, 'Segoe UI', Roboto, sans-serif" font-size="12" font-weight="600">AWS / Azure / GCP</text><rect width="130" height="28" x="-65" y="0" fill="#818cf8" fill-opacity=".15" stroke="#818cf8" stroke-opacity=".4" rx="14"/><text x="0" y="18" fill="#818cf8" font-family="-apple-system, BlinkMacSystemFont, 'Segoe UI', Roboto, sans-serif" font-size="12" font-weight="600">Open-Source PAM</text><rect width="130" height="28" x="80" y="0" fill="#c084fc" fill-opacity=".15" stroke="#c084fc" stroke-opacity=".4" rx="14"/><text x="145" y="18" fill="#c084fc" font-family="-apple-system, BlinkMacSystemFont, 'Segoe UI', Roboto, sans-serif" font-size="12" font-weight="600">Enterprise Vaults</text></g></g></svg>